<svg xmlns="http://www.w3.org/2000/svg" xmlns:xlink="http://www.w3.org/1999/xlink" width="500" zoomAndPan="magnify" viewBox="0 0 375 374.999991" height="500" preserveAspectRatio="xMidYMid meet" version="1.0"><defs><g/><clipPath id="6d6dbf9357"><path d="M 76.777344 73 L 298.027344 73 L 298.027344 302 L 76.777344 302 Z M 76.777344 73 " clip-rule="nonzero"/></clipPath></defs><g clip-path="url(#6d6dbf9357)"><path fill="#3d3b3a" d="M 159.589844 76.703125 C 161.382812 76.253906 163.183594 75.847656 164.996094 75.484375 C 166.808594 75.121094 168.628906 74.804688 170.453125 74.53125 C 172.28125 74.257812 174.113281 74.027344 175.953125 73.84375 C 177.792969 73.65625 179.632812 73.519531 181.480469 73.421875 C 183.324219 73.328125 185.171875 73.277344 187.019531 73.273438 C 188.867188 73.265625 190.714844 73.308594 192.558594 73.390625 C 194.40625 73.476562 196.246094 73.605469 198.085938 73.78125 C 199.925781 73.953125 201.761719 74.171875 203.589844 74.4375 C 205.417969 74.699219 207.238281 75.007812 209.054688 75.359375 C 210.867188 75.710938 212.671875 76.105469 214.46875 76.546875 C 216.261719 76.984375 218.046875 77.46875 219.816406 77.996094 C 221.585938 78.519531 223.34375 79.089844 225.089844 79.703125 C 226.832031 80.3125 228.558594 80.96875 230.273438 81.664062 C 231.984375 82.359375 233.679688 83.097656 235.355469 83.875 C 237.03125 84.652344 238.6875 85.472656 240.324219 86.332031 C 241.960938 87.191406 243.574219 88.089844 245.167969 89.023438 C 246.761719 89.960938 248.328125 90.9375 249.875 91.953125 C 251.421875 92.964844 252.941406 94.015625 254.433594 95.105469 C 255.929688 96.191406 257.398438 97.316406 258.835938 98.472656 C 260.277344 99.632812 261.6875 100.824219 263.070312 102.054688 C 264.453125 103.28125 265.804688 104.542969 267.125 105.835938 C 268.445312 107.128906 269.734375 108.453125 270.988281 109.808594 C 272.246094 111.164062 273.46875 112.550781 274.65625 113.964844 C 275.847656 115.382812 277 116.824219 278.121094 118.296875 C 279.238281 119.769531 280.324219 121.265625 281.371094 122.789062 C 282.414062 124.3125 283.425781 125.863281 284.394531 127.4375 C 285.367188 129.007812 286.300781 130.605469 287.191406 132.222656 C 288.085938 133.84375 288.941406 135.480469 289.753906 137.140625 C 290.570312 138.800781 291.34375 140.480469 292.074219 142.179688 C 292.808594 143.878906 293.5 145.59375 294.148438 147.324219 C 294.796875 149.054688 295.40625 150.800781 295.96875 152.5625 C 296.535156 154.324219 297.054688 156.097656 297.535156 157.882812 C 297.710938 158.542969 297.886719 159.214844 298.054688 159.898438 L 296.308594 160.507812 C 296.132812 159.789062 295.949219 159.074219 295.757812 158.355469 C 295.28125 156.585938 294.765625 154.828125 294.207031 153.082031 C 293.644531 151.339844 293.042969 149.609375 292.398438 147.890625 C 291.753906 146.175781 291.070312 144.476562 290.339844 142.796875 C 289.613281 141.113281 288.84375 139.449219 288.035156 137.804688 C 287.226562 136.160156 286.378906 134.539062 285.488281 132.933594 C 284.601562 131.332031 283.675781 129.75 282.707031 128.195312 C 281.742188 126.636719 280.738281 125.105469 279.699219 123.59375 C 278.660156 122.085938 277.582031 120.605469 276.46875 119.148438 C 275.355469 117.695312 274.207031 116.265625 273.023438 114.867188 C 271.839844 113.46875 270.625 112.097656 269.375 110.757812 C 268.125 109.421875 266.84375 108.113281 265.527344 106.835938 C 264.214844 105.558594 262.871094 104.316406 261.496094 103.105469 C 260.121094 101.894531 258.714844 100.714844 257.285156 99.574219 C 255.851562 98.433594 254.390625 97.324219 252.90625 96.253906 C 251.417969 95.183594 249.90625 94.152344 248.371094 93.15625 C 246.832031 92.160156 245.273438 91.199219 243.6875 90.28125 C 242.105469 89.359375 240.5 88.480469 238.871094 87.636719 C 237.242188 86.796875 235.597656 85.996094 233.929688 85.234375 C 232.265625 84.476562 230.582031 83.753906 228.878906 83.078125 C 227.179688 82.398438 225.460938 81.765625 223.730469 81.167969 C 221.996094 80.574219 220.25 80.023438 218.492188 79.515625 C 216.730469 79.007812 214.960938 78.542969 213.179688 78.121094 C 211.394531 77.699219 209.605469 77.324219 207.804688 76.988281 C 206.003906 76.65625 204.195312 76.367188 202.378906 76.121094 C 200.566406 75.875 198.746094 75.675781 196.921875 75.519531 C 195.09375 75.363281 193.269531 75.25 191.4375 75.183594 C 189.609375 75.117188 187.777344 75.097656 185.945312 75.121094 C 184.113281 75.144531 182.285156 75.210938 180.457031 75.324219 C 178.628906 75.4375 176.804688 75.59375 174.984375 75.796875 C 173.164062 76 171.351562 76.246094 169.542969 76.539062 C 167.734375 76.828125 165.933594 77.164062 164.144531 77.542969 C 162.351562 77.925781 160.570312 78.347656 158.800781 78.8125 C 159.074219 78.117188 159.34375 77.421875 159.589844 76.707031 Z M 78.523438 214.738281 C 78.671875 215.324219 78.816406 215.910156 78.976562 216.496094 C 79.453125 218.273438 79.96875 220.035156 80.53125 221.785156 C 81.09375 223.535156 81.699219 225.269531 82.34375 226.988281 C 82.992188 228.707031 83.679688 230.410156 84.410156 232.097656 C 85.140625 233.78125 85.910156 235.449219 86.722656 237.097656 C 87.535156 238.746094 88.386719 240.375 89.277344 241.980469 C 90.171875 243.585938 91.101562 245.167969 92.070312 246.730469 C 93.039062 248.289062 94.046875 249.828125 95.089844 251.335938 C 96.136719 252.847656 97.21875 254.332031 98.335938 255.789062 C 99.453125 257.25 100.605469 258.679688 101.792969 260.078125 C 102.980469 261.480469 104.199219 262.851562 105.457031 264.195312 C 106.710938 265.535156 107.996094 266.84375 109.316406 268.125 C 110.636719 269.402344 111.984375 270.648438 113.367188 271.859375 C 114.746094 273.070312 116.15625 274.246094 117.59375 275.390625 C 119.03125 276.53125 120.496094 277.640625 121.988281 278.710938 C 123.480469 279.78125 124.996094 280.8125 126.539062 281.808594 C 128.082031 282.804688 129.648438 283.765625 131.238281 284.683594 C 132.828125 285.601562 134.441406 286.480469 136.074219 287.320312 C 137.707031 288.164062 139.359375 288.960938 141.03125 289.71875 C 142.703125 290.480469 144.390625 291.195312 146.101562 291.871094 C 147.808594 292.546875 149.53125 293.183594 151.269531 293.773438 C 153.007812 294.363281 154.757812 294.914062 156.523438 295.417969 C 158.289062 295.921875 160.066406 296.382812 161.851562 296.800781 C 163.640625 297.21875 165.4375 297.59375 167.246094 297.921875 C 169.050781 298.253906 170.863281 298.539062 172.683594 298.777344 C 174.503906 299.019531 176.328125 299.214844 178.160156 299.367188 C 179.988281 299.515625 181.820312 299.621094 183.65625 299.683594 C 185.492188 299.742188 187.328125 299.757812 189.164062 299.730469 C 190.996094 299.699219 192.832031 299.625 194.664062 299.507812 C 196.496094 299.386719 198.324219 299.222656 200.148438 299.015625 C 201.972656 298.804688 203.789062 298.550781 205.601562 298.253906 C 207.414062 297.953125 209.214844 297.613281 211.011719 297.222656 C 212.804688 296.835938 214.589844 296.40625 216.363281 295.929688 C 216.078125 296.628906 215.800781 297.332031 215.542969 298.042969 C 213.75 298.5 211.945312 298.914062 210.128906 299.28125 C 208.316406 299.652344 206.492188 299.976562 204.660156 300.257812 C 202.832031 300.539062 200.996094 300.773438 199.152344 300.964844 C 197.308594 301.15625 195.464844 301.304688 193.613281 301.40625 C 191.765625 301.507812 189.914062 301.5625 188.0625 301.574219 C 186.210938 301.585938 184.359375 301.550781 182.511719 301.46875 C 180.660156 301.390625 178.8125 301.265625 176.96875 301.097656 C 175.125 300.929688 173.285156 300.714844 171.449219 300.457031 C 169.617188 300.195312 167.789062 299.894531 165.972656 299.546875 C 164.152344 299.199219 162.34375 298.804688 160.542969 298.371094 C 158.742188 297.933594 156.953125 297.453125 155.179688 296.929688 C 153.402344 296.40625 151.636719 295.839844 149.890625 295.230469 C 148.140625 294.621094 146.40625 293.96875 144.691406 293.277344 C 142.972656 292.582031 141.273438 291.847656 139.589844 291.070312 C 137.910156 290.292969 136.246094 289.476562 134.605469 288.621094 C 132.964844 287.761719 131.34375 286.863281 129.746094 285.929688 C 128.148438 284.992188 126.574219 284.015625 125.023438 283.003906 C 123.472656 281.992188 121.945312 280.941406 120.445312 279.851562 C 118.945312 278.765625 117.472656 277.640625 116.03125 276.480469 C 114.585938 275.324219 113.167969 274.128906 111.78125 272.898438 C 110.394531 271.671875 109.039062 270.410156 107.714844 269.117188 C 106.386719 267.820312 105.09375 266.496094 103.832031 265.136719 C 102.570312 263.78125 101.34375 262.390625 100.152344 260.976562 C 98.957031 259.558594 97.800781 258.113281 96.675781 256.636719 C 95.554688 255.164062 94.464844 253.664062 93.417969 252.136719 C 92.367188 250.609375 91.355469 249.058594 90.378906 247.480469 C 89.40625 245.90625 88.46875 244.308594 87.570312 242.683594 C 86.675781 241.0625 85.820312 239.421875 85 237.757812 C 84.183594 236.09375 83.410156 234.410156 82.671875 232.710938 C 81.9375 231.007812 81.246094 229.289062 80.59375 227.554688 C 79.941406 225.820312 79.332031 224.070312 78.765625 222.304688 C 78.203125 220.539062 77.679688 218.761719 77.199219 216.972656 C 77.054688 216.433594 76.917969 215.890625 76.777344 215.351562 Z M 78.523438 214.738281 " fill-opacity="1" fill-rule="evenodd"/></g><g fill="#000000" fill-opacity="1"><g transform="translate(98.372639, 197.821191)"><g><path d="M 21.40625 -2.015625 C 20.789062 -1.503906 19.8125 -0.992188 18.46875 -0.484375 C 17.125 0.015625 15.65625 0.265625 14.0625 0.265625 C 11.53125 0.265625 9.328125 -0.285156 7.453125 -1.390625 C 5.578125 -2.492188 4.140625 -3.976562 3.140625 -5.84375 C 2.148438 -7.707031 1.65625 -9.753906 1.65625 -11.984375 C 1.65625 -14.429688 2.148438 -16.613281 3.140625 -18.53125 C 4.140625 -20.445312 5.53125 -21.941406 7.3125 -23.015625 C 9.101562 -24.085938 11.164062 -24.625 13.5 -24.625 C 14.976562 -24.625 16.34375 -24.425781 17.59375 -24.03125 C 18.851562 -23.632812 19.960938 -23.132812 20.921875 -22.53125 L 19.03125 -18 C 17.289062 -19.320312 15.503906 -19.984375 13.671875 -19.984375 C 12.429688 -19.984375 11.269531 -19.640625 10.1875 -18.953125 C 9.113281 -18.273438 8.253906 -17.34375 7.609375 -16.15625 C 6.972656 -14.976562 6.65625 -13.675781 6.65625 -12.25 C 6.65625 -10.675781 6.953125 -9.300781 7.546875 -8.125 C 8.140625 -6.945312 8.988281 -6.023438 10.09375 -5.359375 C 11.195312 -4.703125 12.488281 -4.375 13.96875 -4.375 C 15.15625 -4.375 16.222656 -4.566406 17.171875 -4.953125 C 18.117188 -5.335938 18.867188 -5.796875 19.421875 -6.328125 Z M 21.40625 -2.015625 "/></g></g></g><g fill="#000000" fill-opacity="1"><g transform="translate(147.913867, 197.821191)"><g><path d="M 1.65625 -12.140625 C 1.65625 -14.347656 2.210938 -16.410156 3.328125 -18.328125 C 4.441406 -20.253906 5.953125 -21.785156 7.859375 -22.921875 C 9.765625 -24.054688 11.832031 -24.625 14.0625 -24.625 C 16.289062 -24.625 18.359375 -24.054688 20.265625 -22.921875 C 22.171875 -21.785156 23.691406 -20.253906 24.828125 -18.328125 C 25.972656 -16.410156 26.546875 -14.347656 26.546875 -12.140625 C 26.546875 -9.890625 25.972656 -7.816406 24.828125 -5.921875 C 23.691406 -4.023438 22.171875 -2.519531 20.265625 -1.40625 C 18.359375 -0.289062 16.289062 0.265625 14.0625 0.265625 C 11.8125 0.265625 9.738281 -0.289062 7.84375 -1.40625 C 5.945312 -2.519531 4.441406 -4.023438 3.328125 -5.921875 C 2.210938 -7.816406 1.65625 -9.890625 1.65625 -12.140625 Z M 6.625 -12.140625 C 6.625 -10.734375 6.957031 -9.429688 7.625 -8.234375 C 8.300781 -7.046875 9.21875 -6.101562 10.375 -5.40625 C 11.53125 -4.71875 12.816406 -4.375 14.234375 -4.375 C 15.597656 -4.375 16.84375 -4.71875 17.96875 -5.40625 C 19.09375 -6.101562 19.972656 -7.039062 20.609375 -8.21875 C 21.253906 -9.40625 21.578125 -10.710938 21.578125 -12.140625 C 21.578125 -13.597656 21.242188 -14.921875 20.578125 -16.109375 C 19.921875 -17.304688 19.023438 -18.25 17.890625 -18.9375 C 16.753906 -19.632812 15.488281 -19.984375 14.09375 -19.984375 C 12.707031 -19.984375 11.445312 -19.632812 10.3125 -18.9375 C 9.175781 -18.25 8.273438 -17.304688 7.609375 -16.109375 C 6.953125 -14.921875 6.625 -13.597656 6.625 -12.140625 Z M 6.625 -12.140625 "/></g></g></g><g fill="#000000" fill-opacity="1"><g transform="translate(202.584616, 197.821191)"><g><path d="M 3.140625 -24.359375 L 10.421875 -24.359375 C 13.535156 -24.359375 16.09375 -23.753906 18.09375 -22.546875 C 20.101562 -21.347656 21.566406 -19.796875 22.484375 -17.890625 C 23.398438 -15.984375 23.859375 -13.9375 23.859375 -11.75 C 23.859375 -9.40625 23.304688 -7.335938 22.203125 -5.546875 C 21.097656 -3.765625 19.613281 -2.394531 17.75 -1.4375 C 15.882812 -0.476562 13.835938 0 11.609375 0 L 3.140625 0 Z M 10.78125 -4.640625 C 13.28125 -4.640625 15.253906 -5.273438 16.703125 -6.546875 C 18.160156 -7.828125 18.890625 -9.671875 18.890625 -12.078125 C 18.890625 -14.015625 18.488281 -15.554688 17.6875 -16.703125 C 16.882812 -17.859375 15.945312 -18.65625 14.875 -19.09375 C 13.800781 -19.53125 12.789062 -19.75 11.84375 -19.75 L 7.9375 -19.75 L 7.9375 -4.640625 Z M 10.78125 -4.640625 "/></g></g></g><g fill="#000000" fill-opacity="1"><g transform="translate(254.574762, 197.821191)"><g><path d="M 19.75 -24.359375 L 19.75 -19.71875 L 7.9375 -19.71875 L 7.9375 -14.53125 L 18.40625 -14.53125 L 18.40625 -9.890625 L 7.9375 -9.890625 L 7.9375 -4.640625 L 20.21875 -4.640625 L 20.21875 0 L 3.140625 0 L 3.140625 -24.359375 Z M 19.75 -24.359375 "/></g></g></g><g fill="#000000" fill-opacity="1"><g transform="translate(144.86153, 226.574878)"><g><path d="M 0.609375 -4 C 0.609375 -4.738281 0.789062 -5.421875 1.15625 -6.046875 C 1.519531 -6.679688 2.015625 -7.1875 2.640625 -7.5625 C 3.273438 -7.9375 3.960938 -8.125 4.703125 -8.125 C 5.441406 -8.125 6.125 -7.9375 6.75 -7.5625 C 7.382812 -7.1875 7.890625 -6.679688 8.265625 -6.046875 C 8.640625 -5.410156 8.828125 -4.726562 8.828125 -4 C 8.828125 -3.257812 8.640625 -2.578125 8.265625 -1.953125 C 7.890625 -1.328125 7.382812 -0.828125 6.75 -0.453125 C 6.125 -0.0859375 5.441406 0.09375 4.703125 0.09375 C 3.960938 0.09375 3.273438 -0.0859375 2.640625 -0.453125 C 2.015625 -0.816406 1.519531 -1.3125 1.15625 -1.9375 C 0.789062 -2.5625 0.609375 -3.25 0.609375 -4 Z M 1.9375 -4 C 1.9375 -3.476562 2.0625 -3 2.3125 -2.5625 C 2.5625 -2.132812 2.898438 -1.789062 3.328125 -1.53125 C 3.753906 -1.269531 4.226562 -1.140625 4.75 -1.140625 C 5.25 -1.140625 5.707031 -1.265625 6.125 -1.515625 C 6.550781 -1.773438 6.882812 -2.125 7.125 -2.5625 C 7.375 -3 7.5 -3.476562 7.5 -4 C 7.5 -4.519531 7.375 -5 7.125 -5.4375 C 6.875 -5.882812 6.535156 -6.238281 6.109375 -6.5 C 5.679688 -6.757812 5.210938 -6.890625 4.703125 -6.890625 C 4.191406 -6.890625 3.722656 -6.757812 3.296875 -6.5 C 2.878906 -6.238281 2.546875 -5.882812 2.296875 -5.4375 C 2.054688 -5 1.9375 -4.519531 1.9375 -4 Z M 1.9375 -4 "/></g></g></g><g fill="#000000" fill-opacity="1"><g transform="translate(158.705787, 226.574878)"><g><path d="M 6.4375 -8.03125 L 6.4375 -6.796875 L 2.390625 -6.796875 L 2.390625 -4.65625 L 5.984375 -4.65625 L 5.984375 -3.421875 L 2.390625 -3.421875 L 2.390625 -1.234375 L 6.578125 -1.234375 L 6.578125 0 L 1.109375 0 L 1.109375 -8.03125 Z M 6.4375 -8.03125 "/></g></g></g><g fill="#000000" fill-opacity="1"><g transform="translate(170.376878, 226.574878)"><g><path d="M 5.5 0 L 3.6875 -2.796875 L 2.390625 -2.796875 L 2.390625 0 L 1.109375 0 L 1.109375 -8.03125 L 3.359375 -8.03125 C 4.253906 -8.03125 4.972656 -7.800781 5.515625 -7.34375 C 6.054688 -6.882812 6.328125 -6.253906 6.328125 -5.453125 C 6.328125 -4.953125 6.222656 -4.488281 6.015625 -4.0625 C 5.804688 -3.644531 5.476562 -3.320312 5.03125 -3.09375 L 6.984375 0 Z M 2.390625 -4.03125 L 3.546875 -4.03125 C 4.054688 -4.03125 4.425781 -4.171875 4.65625 -4.453125 C 4.894531 -4.734375 5.015625 -5.050781 5.015625 -5.40625 C 5.015625 -5.613281 4.96875 -5.820312 4.875 -6.03125 C 4.789062 -6.238281 4.640625 -6.414062 4.421875 -6.5625 C 4.210938 -6.71875 3.929688 -6.796875 3.578125 -6.796875 L 2.390625 -6.796875 Z M 2.390625 -4.03125 "/></g></g></g><g fill="#000000" fill-opacity="1"><g transform="translate(182.180343, 226.574878)"><g><path d="M 1.109375 -8.03125 L 3.390625 -8.03125 C 4.390625 -8.03125 5.21875 -7.832031 5.875 -7.4375 C 6.539062 -7.039062 7.023438 -6.53125 7.328125 -5.90625 C 7.628906 -5.28125 7.78125 -4.613281 7.78125 -3.90625 C 7.78125 -3.125 7.597656 -2.4375 7.234375 -1.84375 C 6.867188 -1.25 6.378906 -0.789062 5.765625 -0.46875 C 5.160156 -0.15625 4.492188 0 3.765625 0 L 1.109375 0 Z M 3.546875 -1.234375 C 4.117188 -1.234375 4.625 -1.335938 5.0625 -1.546875 C 5.5 -1.765625 5.835938 -2.082031 6.078125 -2.5 C 6.328125 -2.914062 6.453125 -3.414062 6.453125 -4 C 6.453125 -4.625 6.316406 -5.144531 6.046875 -5.5625 C 5.773438 -5.988281 5.429688 -6.300781 5.015625 -6.5 C 4.609375 -6.707031 4.179688 -6.8125 3.734375 -6.8125 L 2.390625 -6.8125 L 2.390625 -1.234375 Z M 3.546875 -1.234375 "/></g></g></g><g fill="#000000" fill-opacity="1"><g transform="translate(194.987658, 226.574878)"><g/></g></g><g fill="#000000" fill-opacity="1"><g transform="translate(202.930166, 226.574878)"><g><path d="M 4.90625 -4.1875 C 5.351562 -4.007812 5.703125 -3.757812 5.953125 -3.4375 C 6.210938 -3.113281 6.34375 -2.738281 6.34375 -2.3125 C 6.34375 -1.53125 6.078125 -0.945312 5.546875 -0.5625 C 5.023438 -0.1875 4.378906 0 3.609375 0 L 1.109375 0 L 1.109375 -8.03125 L 3.296875 -8.03125 C 4.140625 -8.03125 4.789062 -7.859375 5.25 -7.515625 C 5.71875 -7.171875 5.953125 -6.671875 5.953125 -6.015625 C 5.953125 -5.597656 5.859375 -5.234375 5.671875 -4.921875 C 5.492188 -4.617188 5.238281 -4.375 4.90625 -4.1875 Z M 2.390625 -4.609375 L 3.515625 -4.609375 C 3.878906 -4.609375 4.15625 -4.710938 4.34375 -4.921875 C 4.53125 -5.140625 4.625 -5.410156 4.625 -5.734375 C 4.625 -6.085938 4.507812 -6.351562 4.28125 -6.53125 C 4.0625 -6.707031 3.753906 -6.796875 3.359375 -6.796875 L 2.390625 -6.796875 Z M 3.546875 -1.1875 C 3.984375 -1.1875 4.335938 -1.28125 4.609375 -1.46875 C 4.878906 -1.65625 5.015625 -1.929688 5.015625 -2.296875 C 5.015625 -2.679688 4.863281 -2.957031 4.5625 -3.125 C 4.269531 -3.289062 3.90625 -3.375 3.46875 -3.375 L 2.390625 -3.375 L 2.390625 -1.1875 Z M 3.546875 -1.1875 "/></g></g></g><g fill="#000000" fill-opacity="1"><g transform="translate(214.292387, 226.574878)"><g><path d="M 6.4375 -8.03125 L 6.4375 -6.796875 L 2.390625 -6.796875 L 2.390625 -4.65625 L 5.984375 -4.65625 L 5.984375 -3.421875 L 2.390625 -3.421875 L 2.390625 -1.234375 L 6.578125 -1.234375 L 6.578125 0 L 1.109375 0 L 1.109375 -8.03125 Z M 6.4375 -8.03125 "/></g></g></g><g fill="#000000" fill-opacity="1"><g transform="translate(225.963481, 226.574878)"><g><path d="M 3.078125 -1.5625 C 3.078125 -0.90625 2.945312 -0.335938 2.6875 0.140625 C 2.4375 0.617188 2.082031 0.984375 1.625 1.234375 C 1.164062 1.492188 0.640625 1.640625 0.046875 1.671875 L 0.046875 0.421875 C 0.578125 0.390625 1 0.210938 1.3125 -0.109375 C 1.625 -0.441406 1.78125 -0.9375 1.78125 -1.59375 L 1.78125 -8.03125 L 3.078125 -8.03125 Z M 3.078125 -1.5625 "/></g></g></g><g fill="#3d3b3a" fill-opacity="1"><g transform="translate(167.721441, 184.147282)"><g><path d="M 54.722656 -57.515625 C 54.117188 -57.757812 53.148438 -57.878906 50.355469 -58.121094 C 47.808594 -58.363281 29 -59.09375 26.695312 -59.09375 L 23.296875 -59.214844 L 20.992188 -59.214844 C 21.355469 -59.699219 22.449219 -60.914062 23.175781 -61.519531 C 23.660156 -61.882812 24.148438 -62.367188 24.632812 -62.976562 C 25.117188 -63.582031 26.816406 -65.160156 27.664062 -65.886719 L 28.878906 -66.859375 L 29.363281 -67.464844 C 29.726562 -67.828125 29.726562 -67.949219 29.484375 -68.3125 C 29.363281 -68.558594 29.121094 -68.679688 29 -68.679688 C 28.757812 -68.679688 27.300781 -67.585938 27.179688 -67.222656 L 26.089844 -66.25 C 24.753906 -65.160156 24.511719 -65.039062 24.269531 -64.675781 C 24.023438 -64.429688 20.871094 -61.398438 20.386719 -61.035156 L 20.019531 -60.671875 L 19.050781 -59.578125 L 18.566406 -59.09375 L 1.457031 -58.730469 L -1.214844 -58.484375 C -3.277344 -58.363281 -9.101562 -57.878906 -10.070312 -57.636719 C -11.042969 -57.394531 -11.527344 -56.910156 -11.164062 -56.542969 C -11.042969 -56.300781 -8.613281 -56.542969 -6.917969 -56.910156 C -6.550781 -57.03125 -3.640625 -57.394531 -0.726562 -57.515625 L 2.304688 -57.757812 L 5.582031 -57.878906 L 9.585938 -58.121094 C 10.679688 -58.242188 14.804688 -58.242188 17.472656 -58.242188 C 17.351562 -58 17.109375 -57.878906 16.988281 -57.636719 L 16.625 -57.394531 L 16.257812 -56.910156 L 14.804688 -55.332031 C 13.105469 -53.511719 7.765625 -47.6875 6.671875 -46.109375 C 6.671875 -46.109375 4.730469 -43.804688 4.730469 -43.925781 C 4.730469 -43.804688 4.246094 -43.316406 3.761719 -42.832031 C 3.15625 -42.226562 2.183594 -41.132812 -0.363281 -38.101562 L -1.335938 -37.007812 L -2.304688 -35.796875 C -2.546875 -35.429688 -2.667969 -35.1875 -2.789062 -35.1875 C -3.035156 -35.1875 -3.640625 -34.460938 -5.582031 -31.914062 C -6.308594 -31.0625 -6.917969 -30.335938 -7.160156 -30.214844 C -7.28125 -29.972656 -8.492188 -28.515625 -9.828125 -26.9375 L -12.863281 -23.175781 L -17.835938 -16.503906 C -19.050781 -14.804688 -19.777344 -13.832031 -20.019531 -13.953125 L -20.019531 -13.710938 C -20.019531 -13.589844 -20.019531 -13.347656 -20.140625 -13.105469 C -20.265625 -12.742188 -20.386719 -12.621094 -20.507812 -12.742188 C -20.507812 -12.621094 -20.628906 -12.496094 -20.628906 -12.496094 C -20.628906 -12.253906 -20.628906 -12.132812 -20.75 -12.132812 C -20.75 -12.253906 -21.113281 -11.527344 -21.355469 -10.679688 C -21.839844 -9.464844 -21.960938 -8.980469 -21.839844 -8.371094 C -21.597656 -7.644531 -21.476562 -7.523438 -21.113281 -7.402344 C -20.628906 -7.402344 -20.386719 -7.402344 -20.265625 -7.644531 C -20.019531 -8.007812 -20.019531 -8.007812 -20.507812 -8.128906 C -20.992188 -8.128906 -20.992188 -8.25 -20.992188 -8.738281 C -20.871094 -9.34375 -19.898438 -11.40625 -19.050781 -12.742188 C -16.746094 -16.136719 -10.679688 -23.902344 -6.796875 -28.394531 L -4.855469 -30.699219 L -0.847656 -35.308594 L 2.425781 -38.949219 L 3.519531 -40.285156 L 4.976562 -41.863281 C 6.066406 -43.074219 7.039062 -44.289062 9.101562 -46.714844 C 9.828125 -47.566406 10.679688 -48.414062 11.042969 -48.777344 C 11.40625 -49.144531 12.011719 -49.871094 12.375 -50.355469 L 14.4375 -52.539062 C 15.773438 -53.996094 16.625 -54.722656 17.351562 -55.695312 L 18.445312 -56.785156 C 18.808594 -57.273438 19.171875 -57.515625 19.414062 -57.878906 L 20.019531 -58.242188 C 20.992188 -58.363281 21.71875 -58.242188 22.082031 -58.242188 L 22.570312 -58.242188 C 29.605469 -58.121094 46.472656 -57.636719 48.898438 -57.273438 C 49.628906 -57.03125 50.839844 -57.03125 51.449219 -56.910156 C 52.660156 -56.910156 52.660156 -56.910156 52.417969 -56.421875 C 52.175781 -56.179688 52.296875 -55.9375 52.417969 -55.816406 C 52.660156 -55.574219 52.78125 -55.453125 52.902344 -55.574219 L 54.117188 -56.058594 C 55.453125 -56.664062 55.574219 -57.03125 54.722656 -57.515625 Z M 54.722656 -57.515625 "/></g></g></g><g fill="#3d3b3a" fill-opacity="1"><g transform="translate(180.097975, 184.147282)"><g><path d="M 43.683594 -66.738281 C 43.441406 -67.101562 42.226562 -67.101562 41.011719 -66.859375 L 39.679688 -66.617188 C 38.949219 -66.496094 37.738281 -66.128906 37.25 -65.886719 L 36.28125 -65.644531 C 33.734375 -64.917969 30.335938 -63.460938 27.785156 -62.003906 L 26.453125 -61.277344 L 25.359375 -60.546875 L 23.296875 -59.214844 C 21.839844 -58.242188 20.140625 -57.03125 20.019531 -56.910156 L 16.136719 -53.875 L 13.589844 -51.691406 L 9.464844 -48.050781 C 8.859375 -47.445312 8.128906 -46.714844 7.765625 -46.472656 L 6.671875 -46.109375 C 6.066406 -45.867188 5.582031 -45.746094 5.582031 -45.625 C 5.582031 -45.625 5.460938 -45.503906 5.339844 -45.503906 C 5.21875 -45.503906 4.855469 -45.382812 4.367188 -45.136719 C 4.003906 -45.015625 3.761719 -44.894531 3.640625 -44.773438 L 2.425781 -44.289062 L -1.335938 -42.953125 C -1.699219 -42.832031 -2.183594 -42.589844 -2.304688 -42.46875 C -2.546875 -41.984375 -2.425781 -41.742188 -1.941406 -41.742188 C -1.699219 -41.742188 -1.214844 -41.863281 -0.726562 -41.984375 L 0.484375 -42.589844 C 0.847656 -42.832031 1.335938 -42.953125 1.820312 -43.074219 L 4.003906 -43.804688 C 4.125 -43.925781 4.367188 -43.925781 4.609375 -44.046875 C 4.609375 -44.167969 5.460938 -44.410156 5.582031 -44.289062 C 5.582031 -44.289062 4.730469 -43.316406 3.519531 -42.226562 L -0.726562 -37.738281 L -1.214844 -37.25 L -2.304688 -35.917969 L -3.398438 -34.703125 C -3.761719 -34.339844 -4.246094 -33.855469 -4.246094 -33.367188 C -4.246094 -33.003906 -3.761719 -32.761719 -3.519531 -32.640625 C -3.15625 -32.519531 -3.035156 -32.640625 -2.914062 -32.761719 L -2.546875 -33.003906 L -1.941406 -33.488281 L -1.578125 -33.855469 L -1.214844 -34.097656 L -0.972656 -34.21875 L 0.484375 -35.675781 L 1.214844 -36.039062 L 1.335938 -36.039062 L 2.0625 -36.523438 C 2.304688 -36.765625 2.914062 -37.007812 3.398438 -37.128906 L 4.730469 -37.617188 C 5.097656 -37.738281 5.339844 -37.859375 5.339844 -37.738281 C 5.339844 -37.617188 5.339844 -37.617188 5.21875 -37.617188 C 5.097656 -37.617188 4.246094 -36.523438 3.882812 -35.796875 L 3.519531 -35.066406 C 3.035156 -33.976562 3.035156 -33.488281 3.640625 -33.003906 C 4.003906 -32.761719 4.246094 -32.640625 4.609375 -32.761719 L 4.855469 -32.882812 C 5.824219 -33.003906 9.101562 -34.460938 9.585938 -34.703125 C 10.3125 -34.945312 10.070312 -35.066406 11.769531 -35.796875 C 12.011719 -35.796875 12.496094 -36.28125 13.105469 -36.523438 C 15.652344 -37.738281 13.46875 -36.886719 15.773438 -37.738281 C 16.867188 -38.464844 16.015625 -38.464844 15.53125 -38.464844 L 12.496094 -37.128906 C 10.921875 -36.402344 6.671875 -34.582031 5.460938 -34.097656 L 4.976562 -33.976562 L 4.730469 -33.976562 C 4.609375 -33.976562 4.730469 -34.460938 5.097656 -35.1875 L 5.21875 -35.550781 C 5.460938 -36.039062 6.1875 -36.886719 7.28125 -37.980469 C 7.765625 -38.585938 7.886719 -38.707031 7.765625 -38.949219 C 7.523438 -39.3125 7.039062 -39.3125 5.460938 -38.828125 C 3.519531 -38.101562 2.425781 -37.738281 1.457031 -37.25 C 1.335938 -37.25 1.335938 -37.128906 1.214844 -37.128906 C 0.972656 -37.007812 0.726562 -36.886719 0.605469 -37.007812 L 0.605469 -37.25 C 0.972656 -37.859375 4.246094 -41.132812 6.550781 -43.441406 L 8.613281 -45.503906 L 9.222656 -45.867188 L 13.832031 -47.929688 C 15.410156 -48.65625 16.382812 -49.019531 16.625 -49.144531 L 18.6875 -49.992188 C 19.65625 -50.476562 20.628906 -50.839844 20.75 -50.839844 C 20.992188 -50.839844 21.597656 -51.085938 22.082031 -51.328125 C 24.632812 -52.539062 30.214844 -55.089844 31.546875 -55.9375 L 32.277344 -56.179688 C 32.640625 -56.300781 32.882812 -56.542969 32.882812 -56.664062 C 33.003906 -56.785156 33.246094 -56.910156 33.488281 -57.03125 C 33.734375 -57.03125 34.21875 -57.273438 34.582031 -57.515625 L 36.402344 -58.605469 C 37.007812 -59.09375 38.222656 -59.820312 38.949219 -60.425781 L 40.769531 -61.761719 C 41.375 -62.125 42.953125 -63.703125 43.441406 -64.554688 C 44.046875 -65.402344 44.046875 -66.25 43.683594 -66.738281 Z M 42.46875 -64.917969 L 41.742188 -64.066406 C 41.5 -63.703125 41.132812 -63.21875 41.011719 -63.21875 L 39.800781 -62.246094 C 39.070312 -61.519531 37.25 -60.304688 35.675781 -59.335938 L 31.546875 -57.03125 L 30.09375 -56.300781 L 28.757812 -55.574219 L 26.453125 -54.480469 C 25.722656 -53.996094 24.875 -53.632812 24.511719 -53.511719 L 22.8125 -52.902344 L 20.386719 -51.8125 L 17.714844 -50.71875 C 17.109375 -50.476562 16.503906 -50.234375 16.382812 -50.234375 C 16.257812 -50.234375 15.773438 -49.992188 15.167969 -49.75 C 14.683594 -49.507812 14.074219 -49.265625 13.953125 -49.265625 C 13.832031 -49.265625 13.226562 -48.898438 12.496094 -48.535156 C 11.648438 -48.171875 11.285156 -48.050781 11.285156 -48.171875 C 11.285156 -48.292969 11.285156 -48.535156 11.40625 -48.535156 L 12.863281 -49.75 C 15.289062 -51.933594 19.777344 -55.695312 20.019531 -55.695312 L 20.992188 -56.421875 C 22.8125 -57.878906 26.695312 -60.425781 29.726562 -62.003906 C 32.035156 -63.097656 35.1875 -64.308594 37.371094 -64.917969 L 39.3125 -65.523438 C 39.679688 -65.644531 41.742188 -65.886719 42.105469 -65.765625 C 42.347656 -65.644531 42.46875 -65.523438 42.589844 -65.28125 C 42.589844 -65.160156 42.46875 -64.917969 42.46875 -64.917969 Z M 42.46875 -64.917969 "/></g></g></g><g fill="#3d3b3a" fill-opacity="1"><g transform="translate(197.570702, 184.147282)"><g><path d="M -1.214844 -33.125 C 0.121094 -33.367188 0.972656 -33.609375 3.15625 -34.703125 L 8.613281 -37.128906 L 10.191406 -37.859375 C 10.3125 -37.980469 10.3125 -38.34375 10.070312 -38.464844 L 9.949219 -38.585938 L 9.585938 -38.585938 L 9.34375 -38.464844 C 2.667969 -35.550781 -1.335938 -34.097656 -2.0625 -34.339844 C -2.304688 -34.460938 -2.304688 -34.582031 -1.941406 -34.945312 C -1.699219 -35.429688 -1.457031 -35.550781 -0.605469 -35.796875 C 0.726562 -36.160156 1.941406 -36.765625 4.003906 -38.222656 C 5.945312 -39.558594 6.796875 -40.285156 6.671875 -40.648438 C 6.429688 -41.375 5.339844 -41.253906 3.398438 -40.527344 C 0.972656 -39.679688 -1.820312 -37.492188 -3.035156 -35.550781 C -3.640625 -34.582031 -3.761719 -34.21875 -3.519531 -33.734375 C -3.398438 -32.882812 -3.15625 -32.882812 -1.214844 -33.125 Z M -0.242188 -37.128906 C -0.121094 -37.492188 1.941406 -38.949219 2.789062 -39.191406 C 3.519531 -39.558594 4.730469 -40.042969 4.730469 -39.800781 C 4.609375 -39.679688 2.789062 -38.464844 1.699219 -37.859375 C 0.363281 -37.128906 -0.484375 -36.886719 -0.242188 -37.128906 Z M -0.242188 -37.128906 "/></g></g></g></svg>